<?xml version="1.0" standalone="no"?><!DOCTYPE svg PUBLIC "-//W3C//DTD SVG 1.1//EN" "http://www.w3.org/Graphics/SVG/1.1/DTD/svg11.dtd"><svg t="1641439445648" class="icon" viewBox="0 0 1024 1024" version="1.1" xmlns="http://www.w3.org/2000/svg" p-id="2124" xmlns:xlink="http://www.w3.org/1999/xlink" width="200" height="200"><defs><style type="text/css"></style></defs><path d="M370.688 892.416H194.56c-34.816 0-63.488-28.16-63.488-63.488v-177.664c0-15.872 15.36-28.672 31.232-28.672s31.232 12.8 31.232 28.672v172.544c0 3.072 2.56 5.632 5.632 5.632h171.008c15.872 0 29.184 15.36 29.184 31.232 0 15.872-12.288 31.744-28.16 31.744h-0.512zM162.816 397.824c-15.872 0-31.232-12.8-31.232-28.672V194.56c0-34.816 28.16-63.488 63.488-63.488h176.128c15.872 0 28.672 15.36 28.672 31.232s-12.8 31.232-28.672 31.232H199.68c-3.072 0-5.632 2.56-5.632 5.632V368.64c0 15.872-15.36 29.184-31.232 29.184zM829.44 892.416h-174.592c-15.872 0-28.672-15.36-28.672-31.232s12.8-31.232 28.672-31.232H824.32c3.072 0 5.632-2.56 5.632-5.632v-172.544c0-15.872 15.36-28.672 31.232-28.672 15.872 0 31.232 12.8 31.232 28.672V829.44c0.512 34.816-27.648 62.976-62.976 62.976z m32.256-494.592c-15.872 0-31.232-12.8-31.232-28.672V199.68c0-3.072-2.56-5.632-5.632-5.632H655.36c-15.872 0-28.672-15.36-28.672-31.232s12.8-31.232 28.672-31.232h174.08c34.816 0 63.488 28.16 63.488 63.488V368.64c0 15.872-15.36 29.184-31.232 29.184z" fill="#707070" p-id="2125"></path></svg>