<?xml version="1.0" standalone="no"?><!DOCTYPE svg PUBLIC "-//W3C//DTD SVG 1.1//EN" "http://www.w3.org/Graphics/SVG/1.1/DTD/svg11.dtd"><svg t="1639107257822" class="icon" viewBox="0 0 1025 1024" version="1.1" xmlns="http://www.w3.org/2000/svg" p-id="2354" xmlns:xlink="http://www.w3.org/1999/xlink" width="200.1953125" height="200"><defs><style type="text/css"></style></defs><path d="M709.04706 961.029879 251.334012 961.029879c-67.489258 0-122.180434-53.29839-122.180434-119.011103L129.153577 243.474643c0-65.74239 54.68913-119.011103 122.180434-119.011103L251.334012 64.9585l61.090217 0 0 59.504016L435.655649 124.462517 435.655649 64.9585l61.092264 0 0 59.504016 151.207907 0L647.95582 64.9585l61.089194 0 0 59.504016c67.489258 0 122.209088 53.268713 122.209088 119.011103l0 598.545157C831.256149 907.731489 776.539388 961.029879 709.04706 961.029879zM770.161838 243.475666c0-32.873242-27.368614-59.506063-61.115801-59.506063L251.334012 183.969603c-33.747187 0-61.089194 26.632821-61.089194 59.506063l0 598.545157c0 32.869148 27.344053 59.504016 61.089194 59.504016l457.714072 0c33.747187 0 61.115801-26.634868 61.115801-59.504016L770.161838 243.475666 770.161838 243.475666zM678.500928 779.015908 281.881167 779.015908c-16.871035 0-30.547155-13.318969-30.547155-29.753032s13.67305-29.750985 30.547155-29.750985l396.619762 0c16.871035 0 30.547155 13.317946 30.547155 29.750985C709.04706 765.696939 695.372987 779.015908 678.500928 779.015908zM678.500928 600.502835 281.881167 600.502835c-16.871035 0-30.547155-13.317946-30.547155-29.753032 0-16.435086 13.67305-29.753032 30.547155-29.753032l396.619762 0c16.871035 0 30.547155 13.321016 30.547155 29.753032C709.04706 587.18489 695.372987 600.502835 678.500928 600.502835zM678.500928 421.985669 281.881167 421.985669c-16.871035 0-30.547155-13.317946-30.547155-29.752008s13.67305-29.750985 30.547155-29.750985l396.619762 0c16.871035 0 30.547155 13.319992 30.547155 29.750985C709.04706 408.668747 695.372987 421.985669 678.500928 421.985669z" p-id="2355"></path></svg>